<svg preserveAspectRatio="none" width="100%" height="100%" overflow="visible" style="display: block;" viewBox="0 0 393 114.559" fill="none" xmlns="http://www.w3.org/2000/svg">
<g id="&#194;&#171;&#208;&#145;&#208;&#161;&#194;&#187; Logo 03 GrayScale (Dark) 1" clip-path="url(#clip0_0_35)">
<path id="Vector" fill-rule="evenodd" clip-rule="evenodd" d="M248.889 28.3242H237.634V21.3783H267.885L266.66 28.3242H256.677V52.1H248.889V28.3242Z" fill="var(--fill-0, white)"/>
<path id="Vector_2" fill-rule="evenodd" clip-rule="evenodd" d="M348.621 52.1H330.071V21.3783H348.28C356.822 21.3783 360.581 31.305 355.062 36.095C363.008 41.0533 358.36 52.1 348.621 52.1ZM346.514 33.5974C351.409 33.5974 351.412 27.9027 346.514 27.9027H337.618V33.5974H346.514ZM347.658 45.5755C353.281 45.5755 352.64 39.3998 347.658 39.3998H337.618V45.5755H347.658Z" fill="var(--fill-0, white)"/>
<path id="Vector_3" fill-rule="evenodd" clip-rule="evenodd" d="M256.684 59.7668V78.7868L271.386 59.7668H279.014V90.4884H271.226V71.3515L256.524 90.4884H248.895V59.7668H256.684Z" fill="var(--fill-0, white)"/>
<path id="Vector_4" fill-rule="evenodd" clip-rule="evenodd" d="M377.116 20.8328C398.287 20.8328 398.35 52.6381 377.116 52.6381C355.842 52.6381 355.915 20.8328 377.116 20.8328ZM377.116 45.2109C388.012 45.2109 388.002 28.26 377.116 28.26C366.128 28.26 366.25 45.2109 377.116 45.2109Z" fill="var(--fill-0, white)"/>
<path id="Vector_5" fill-rule="evenodd" clip-rule="evenodd" d="M294.452 49.8096C283.774 56.0893 268.021 49.7001 268.021 36.3499C268.021 23.1342 283.698 16.6073 294.299 22.8169L292.998 30.1972C287.107 25.1018 275.809 28.0393 275.809 36.2892C275.809 44.7925 286.915 47.5472 293.144 42.3849L294.452 49.8096Z" fill="var(--fill-0, white)"/>
<path id="Vector_6" fill-rule="evenodd" clip-rule="evenodd" d="M166.86 20.8328C188.032 20.8328 188.095 52.6381 166.86 52.6381C145.587 52.6381 145.66 20.8328 166.86 20.8328ZM166.86 45.2109C177.756 45.2109 177.747 28.26 166.86 28.26C155.873 28.26 155.995 45.2109 166.86 45.2109Z" fill="var(--fill-0, white)"/>
<path id="Vector_7" fill-rule="evenodd" clip-rule="evenodd" d="M207.967 21.3783L206.743 28.3242H193.816V52.1H186.026V21.3783H207.967Z" fill="var(--fill-0, white)"/>
<path id="Vector_8" fill-rule="evenodd" clip-rule="evenodd" d="M234.675 32.218C234.675 39.6796 234.792 44.815 235.932 52.0932H228.313C228.188 51.1935 228.084 50.285 227.949 49.3885C221.807 54.7134 207.264 54.1278 207.264 43.2933C207.264 33.1884 219.803 33.1814 227.055 32.3618C226.587 25.865 215.747 26.8892 211.706 30.2252L210.489 23.323C218.56 18.5349 234.675 20.1147 234.675 32.218ZM214.812 42.6313C214.812 47.4427 227.127 47.903 227.127 40.7049V38.407C224.319 38.7317 214.812 38.6591 214.812 42.6313Z" fill="var(--fill-0, white)"/>
<path id="Vector_9" fill-rule="evenodd" clip-rule="evenodd" d="M185.114 70.7709V90.506H177.326V59.7844H185.995L195.695 74.8683L205.337 59.7844H214.066V90.506H206.277V70.7153L197.315 85.3294H194.077L185.114 70.7709Z" fill="var(--fill-0, white)"/>
<path id="Vector_10" fill-rule="evenodd" clip-rule="evenodd" d="M245.296 80.0627C245.296 85.9856 240.635 90.4884 234.751 90.4884H218.006V59.7668H225.794V69.8186H234.751C240.547 69.8186 245.296 74.2132 245.296 80.0627ZM233.487 83.723C235.546 83.723 237.508 82.3022 237.508 80.124C237.508 77.9453 235.546 76.5238 233.487 76.5238H225.794V83.723H233.487Z" fill="var(--fill-0, white)"/>
<path id="Vector_11" fill-rule="evenodd" clip-rule="evenodd" d="M141.865 88.6026C131.187 94.8826 115.434 88.4936 115.434 75.1431C115.434 61.9274 131.111 55.4006 141.713 61.6102L140.411 68.9904C134.521 63.8951 123.222 66.8326 123.222 75.0825C123.222 83.5859 134.328 86.3408 140.557 81.1785L141.865 88.6026Z" fill="var(--fill-0, white)"/>
<path id="Vector_12" fill-rule="evenodd" clip-rule="evenodd" d="M117.163 12.9633H145.286L143.987 20.3304H125.121V26.0195H133.139C140.645 26.0195 147.67 30.777 147.67 39.0933C147.67 47.3775 140.595 52.1063 133.139 52.1063H116.851V12.9633H117.163ZM133.139 44.7392C136.427 44.7392 139.4 42.9272 139.4 39.0933C139.4 35.2586 136.427 33.4467 133.139 33.4467H125.121V44.7392H133.139Z" fill="var(--fill-0, white)"/>
<path id="Vector_13" fill-rule="evenodd" clip-rule="evenodd" d="M316.243 28.3242H327.499V21.3783H297.246L298.472 28.3242H308.454V52.1H316.243V28.3242Z" fill="var(--fill-0, white)"/>
<path id="Vector_14" fill-rule="evenodd" clip-rule="evenodd" d="M158.461 59.305C159.578 59.305 160.656 59.4007 161.692 59.5896C162.727 59.7792 163.715 60.0639 164.657 60.4418C165.599 60.821 166.478 61.277 167.291 61.8094C168.106 62.3425 168.859 62.9537 169.545 63.6401C170.23 64.3239 170.842 65.0791 171.377 65.9031C171.91 66.7221 172.366 67.6099 172.745 68.5615C173.502 70.466 173.882 72.542 173.882 74.7861C173.882 75.6371 173.82 76.5936 173.699 77.651L173.668 77.9282H150.832C151.154 78.8148 151.598 79.6231 152.162 80.3511C152.813 81.192 153.625 81.9278 154.598 82.5603C155.571 83.1936 156.647 83.6709 157.819 83.9875C158.995 84.3057 160.273 84.4648 161.651 84.4648C162.404 84.4648 163.136 84.4155 163.844 84.3185C164.554 84.2214 165.249 84.0726 165.928 83.8761C166.603 83.6812 167.229 83.4497 167.802 83.1856C168.375 82.9215 168.894 82.6247 169.357 82.297L169.61 82.118L170.759 88.6391C170.374 88.8491 169.976 89.0472 169.565 89.231C168.724 89.608 167.828 89.9302 166.88 90.1952C165.935 90.4585 164.958 90.6582 163.955 90.7902C162.949 90.9231 161.919 90.9899 160.868 90.9899C159.57 90.9899 158.32 90.8881 157.123 90.6844C155.925 90.48 154.778 90.1729 153.688 89.7656C152.595 89.3574 151.575 88.8722 150.635 88.3129C149.69 87.7512 148.816 87.11 148.019 86.3948C147.221 85.6773 146.51 84.8873 145.891 84.0273C145.272 83.1665 144.74 82.2333 144.301 81.2309C143.859 80.227 143.528 79.1757 143.31 78.0827C143.091 76.986 142.98 75.8454 142.98 74.6661C142.98 73.5662 143.077 72.5031 143.272 71.4783C143.466 70.4553 143.759 69.4706 144.148 68.5284C144.536 67.5887 145.001 66.7096 145.538 65.895C146.077 65.076 146.692 64.3239 147.375 63.6401C148.06 62.9556 148.813 62.3443 149.63 61.8101C150.443 61.2782 151.322 60.821 152.265 60.4418C153.206 60.0639 154.194 59.7792 155.229 59.5896C156.265 59.4007 157.343 59.305 158.461 59.305ZM166.824 71.8849C166.674 71.046 166.411 70.2895 166.036 69.6195C165.61 68.858 165.038 68.2043 164.322 67.6605C162.874 66.5607 161.101 66.0101 159.003 66.0101C156.827 66.0101 154.994 66.59 153.506 67.7487C152.762 68.3288 152.144 68.997 151.657 69.7491C151.239 70.396 150.914 71.1085 150.684 71.8849H166.824Z" fill="var(--fill-0, white)"/>
<path id="Vector_15" d="M120.067 114.066V112.636H119.848C118.815 112.622 118.047 112.337 117.544 111.781C117.04 111.212 116.789 110.331 116.789 109.139V104.094C116.789 102.902 117.04 102.022 117.544 101.452C118.06 100.882 118.828 100.598 119.848 100.598H120.067V99.1672H122.231V100.598H122.45C123.47 100.598 124.231 100.882 124.734 101.452C125.251 102.022 125.509 102.902 125.509 104.094V109.139C125.509 110.331 125.251 111.212 124.734 111.781C124.231 112.351 123.456 112.636 122.41 112.636H122.231V114.066H120.067ZM120.067 110.689V102.544H119.848C119.557 102.544 119.338 102.657 119.192 102.882C119.047 103.094 118.973 103.445 118.973 103.935V109.298C118.973 109.788 119.047 110.146 119.192 110.371C119.338 110.583 119.557 110.689 119.848 110.689H120.067ZM122.45 110.689C122.741 110.689 122.96 110.583 123.106 110.371C123.251 110.146 123.324 109.788 123.324 109.298V103.935C123.324 103.445 123.251 103.094 123.106 102.882C122.96 102.657 122.741 102.544 122.45 102.544H122.231V110.689H122.45Z" fill="var(--fill-0, #CFCFD6)"/>
<path id="Vector_16" d="M160.638 113.804C159.71 113.804 159.002 113.519 158.512 112.95C158.022 112.381 157.777 111.533 157.777 110.407V102.819C157.777 101.694 158.022 100.846 158.512 100.277C159.002 99.7071 159.71 99.4223 160.638 99.4223C161.565 99.4223 162.273 99.7134 162.763 100.297C163.253 100.866 163.498 101.707 163.498 102.819V110.407C163.498 111.533 163.253 112.381 162.763 112.95C162.273 113.519 161.565 113.804 160.638 113.804ZM160.638 111.798C160.863 111.798 161.029 111.706 161.134 111.52C161.254 111.321 161.313 110.997 161.313 110.546V102.68C161.313 102.23 161.254 101.912 161.134 101.727C161.029 101.528 160.863 101.429 160.638 101.429C160.413 101.429 160.24 101.528 160.121 101.727C160.015 101.912 159.963 102.23 159.963 102.68V110.546C159.963 110.997 160.015 111.321 160.121 111.52C160.24 111.706 160.413 111.798 160.638 111.798Z" fill="var(--fill-0, #CFCFD6)"/>
<path id="Vector_17" d="M195.985 113.564V99.6598H198.568C199.588 99.6598 200.349 99.9446 200.852 100.513C201.369 101.083 201.627 101.964 201.627 103.155V105.023C201.627 106.215 201.369 107.096 200.852 107.665C200.349 108.234 199.588 108.519 198.568 108.519H198.171V113.564H195.985ZM198.568 106.552C198.859 106.552 199.078 106.447 199.223 106.235C199.369 106.023 199.442 105.672 199.442 105.182V102.997C199.442 102.507 199.369 102.156 199.223 101.944C199.078 101.719 198.859 101.607 198.568 101.607H198.171V106.552H198.568Z" fill="var(--fill-0, #CFCFD6)"/>
<path id="Vector_18" d="M237.216 99.6598H239.242L236.917 111.28C236.746 112.141 236.434 112.777 235.984 113.187C235.534 113.598 234.925 113.803 234.156 113.803C233.944 113.803 233.719 113.783 233.481 113.743V111.737C233.719 111.777 233.878 111.797 233.958 111.797C234.236 111.797 234.461 111.731 234.633 111.598C234.805 111.452 234.931 111.221 235.01 110.903L235.09 110.565L232.944 99.6598H235.13L236.142 106.851H236.182L237.216 99.6598Z" fill="var(--fill-0, #CFCFD6)"/>
<path id="Vector_19" d="M270.546 113.564L271.022 99.6598H273.465L274.3 105.56C274.459 106.712 274.551 107.42 274.577 107.684H274.637C274.69 107.116 274.776 106.407 274.896 105.56L275.77 99.6598H278.233L278.65 113.564H276.465L276.445 107.288C276.445 105.526 276.458 104.182 276.485 103.255H276.425L275.253 111.161H273.843L272.73 103.255H272.67C272.698 104.288 272.71 105.626 272.71 107.268L272.69 113.564H270.546Z" fill="var(--fill-0, #CFCFD6)"/>
<path id="Vector_20" fill-rule="evenodd" clip-rule="evenodd" d="M1.38278 30.8367L102.194 13.0601L100.664 21.9324C96.0734 21.9324 92.3176 25.6883 92.3176 30.2793V52.0684H83.9652V33.8593C83.9652 29.2689 80.2086 25.5124 75.6196 25.5124C71.0293 25.5124 67.2736 29.2683 67.2736 33.8593V52.0684H58.9276V38.2821C58.9276 33.6916 55.1716 29.9352 50.5825 29.9352C45.9921 29.9352 42.2365 33.691 42.2365 38.2821V52.0684H33.89V42.6986C33.89 38.1081 30.1347 34.3517 25.5449 34.3517C20.9552 34.3517 17.1984 38.1081 17.1984 42.6986V52.0684H8.85292V47.1145C8.85292 42.524 5.09696 38.7675 0.507848 38.7675C0.337673 38.7675 0.167673 38.7732 0 38.7832L1.38278 30.8367Z" fill="var(--fill-0, #FFCC64)"/>
<path id="Vector_21" d="M13.165 23.1673C15.8588 23.1673 18.0425 20.9835 18.0425 18.2896C18.0425 15.5957 15.8588 13.412 13.165 13.412C10.4711 13.412 8.28739 15.5957 8.28739 18.2896C8.28739 20.9835 10.4711 23.1673 13.165 23.1673Z" fill="var(--fill-0, #FFCC64)"/>
<path id="Vector_22" d="M38.1722 18.9003C40.8661 18.9003 43.0498 16.7166 43.0498 14.0227C43.0498 11.3288 40.8661 9.14511 38.1722 9.14511C35.4784 9.14511 33.2947 11.3288 33.2947 14.0227C33.2947 16.7166 35.4784 18.9003 38.1722 18.9003Z" fill="var(--fill-0, #FFCC64)"/>
<path id="Vector_23" d="M63.1621 14.0222C65.8559 14.0222 68.0396 11.8384 68.0396 9.14458C68.0396 6.4507 65.8559 4.26681 63.1621 4.26681C60.4683 4.26681 58.2845 6.4507 58.2845 9.14458C58.2845 11.8384 60.4683 14.0222 63.1621 14.0222Z" fill="var(--fill-0, #FFCC64)"/>
<path id="Vector_24" d="M88.1561 9.75517C90.8498 9.75517 93.0336 7.57144 93.0336 4.87757C93.0336 2.18371 90.8498 -5.86909e-05 88.1561 -5.86909e-05C85.4624 -5.86909e-05 83.2786 2.18371 83.2786 4.87757C83.2786 7.57144 85.4624 9.75517 88.1561 9.75517Z" fill="var(--fill-0, #FFCC64)"/>
</g>
<defs>
<clipPath id="clip0_0_35">
<rect width="393" height="114.559" fill="white"/>
</clipPath>
</defs>
</svg>
