<svg preserveAspectRatio="xMidYMid meet" width="100%" height="100%" overflow="visible" style="display: block;" viewBox="0 0 32.604 28.0727" fill="none" xmlns="http://www.w3.org/2000/svg">
<g id="Group 36863">
<path id="Fill 476" opacity="0.4" d="M17.3965 6.44273H21.789C27.7535 6.44273 32.604 11.2946 32.604 17.2577C32.604 23.2209 27.7535 28.0727 21.789 28.0727H10.815C4.85042 28.0727 0 23.2209 0 17.2577C0 11.2946 4.85042 6.44273 10.815 6.44273H15.209H17.3965Z" fill="var(--fill-0, #F39801)"/>
<g id="Union">
<path d="M17.396 6.44292V5.93542C17.3858 3.72021 15.5498 1.91187 13.2981 1.90458H11.7975C11.3294 1.90458 10.9473 1.54 10.9473 1.09375V0H8.75979V1.09375C8.75979 2.74604 10.1233 4.09208 11.7975 4.09208H13.2937C14.3452 4.095 15.2042 4.92771 15.2085 5.94125V6.44292H17.396Z" fill="var(--fill-0, #F39801)"/>
<path d="M15.2113 18.3107H12.4988V20.9693H10.3113V18.3107H7.5959V16.1232H10.3113V13.4632H12.4988V16.1232H15.2113V18.3107Z" fill="var(--fill-0, #F39801)"/>
<path d="M21.7563 15.8112H19.4171V13.6237H21.7563V15.8112Z" fill="var(--fill-0, #F39801)"/>
<path d="M24.3317 20.8891H21.9926V18.7016H24.3317V20.8891Z" fill="var(--fill-0, #F39801)"/>
</g>
</g>
</svg>
